<?xml version="1.0" encoding="UTF-8" standalone="no"?>
<!DOCTYPE svg PUBLIC "-//W3C//DTD SVG 1.1//EN"
 "http://www.w3.org/Graphics/SVG/1.1/DTD/svg11.dtd">
<!-- Generated by graphviz version 5.0.1 (20220820.1526)
 -->
<!-- Title: COLAs Pages: 1 -->
<svg width="844pt" height="314pt"
 viewBox="0.00 0.00 844.00 314.00" xmlns="http://www.w3.org/2000/svg" xmlns:xlink="http://www.w3.org/1999/xlink">
<g id="graph0" class="graph" transform="scale(1 1) rotate(0) translate(4 310)">
<title>COLAs</title>
<polygon fill="white" stroke="none" points="-4,4 -4,-310 840,-310 840,4 -4,4"/>
<!-- ESCRITORIO: B10EMPRESA: BNRPUNTO: VN -->
<g id="node1" class="node">
<title>ESCRITORIO: B10EMPRESA: BNRPUNTO: VN</title>
<polygon fill="brown" stroke="brown" points="265,-36 211,-36 211,0 265,0 265,-36"/>
<text text-anchor="middle" x="238" y="-14.3" font-family="Times New Roman,serif" font-size="14.00">B10</text>
</g>
<!-- DPI: 2933151163333 NOMBRE: Dante &#160;TRANSACCION:APCU TIEMPO: 15  -->
<g id="node2" class="node">
<title>DPI: 2933151163333 NOMBRE: Dante &#160;TRANSACCION:APCU TIEMPO: 15 </title>
<polygon fill="lightgrey" stroke="black" points="470,-90 6,-90 6,-54 470,-54 470,-90"/>
<text text-anchor="middle" x="238" y="-68.3" font-family="Times New Roman,serif" font-size="14.00">DPI: 2933151163333 NOMBRE: Dante &#160;TRANSACCION:APCU TIEMPO: 15 </text>
</g>
<!-- DPI: 2933151163333 NOMBRE: Dante &#160;TRANSACCION:COPR TIEMPO:0 -->
<g id="node3" class="node">
<title>DPI: 2933151163333 NOMBRE: Dante &#160;TRANSACCION:COPR TIEMPO:0</title>
<polygon fill="lightgrey" stroke="black" points="463.5,-144 12.5,-144 12.5,-108 463.5,-108 463.5,-144"/>
<text text-anchor="middle" x="238" y="-122.3" font-family="Times New Roman,serif" font-size="14.00">DPI: 2933151163333 NOMBRE: Dante &#160;TRANSACCION:COPR TIEMPO:0</text>
</g>
<!-- DPI: 2933151162222 NOMBRE: Bill Gates &#160;TRANSACCION:DEEF TIEMPO: 5  -->
<g id="node4" class="node">
<title>DPI: 2933151162222 NOMBRE: Bill Gates &#160;TRANSACCION:DEEF TIEMPO: 5 </title>
<polygon fill="lightgrey" stroke="black" points="476,-198 0,-198 0,-162 476,-162 476,-198"/>
<text text-anchor="middle" x="238" y="-176.3" font-family="Times New Roman,serif" font-size="14.00">DPI: 2933151162222 NOMBRE: Bill Gates &#160;TRANSACCION:DEEF TIEMPO: 5 </text>
</g>
<!-- DPI: 2933151161111 NOMBRE: Arturito &#160;TRANSACCION:DEEF TIEMPO: 5  -->
<g id="node5" class="node">
<title>DPI: 2933151161111 NOMBRE: Arturito &#160;TRANSACCION:DEEF TIEMPO: 5 </title>
<polygon fill="lightgrey" stroke="black" points="471,-252 5,-252 5,-216 471,-216 471,-252"/>
<text text-anchor="middle" x="238" y="-230.3" font-family="Times New Roman,serif" font-size="14.00">DPI: 2933151161111 NOMBRE: Arturito &#160;TRANSACCION:DEEF TIEMPO: 5 </text>
</g>
<!-- 1 -->
<g id="node6" class="node">
<title>1</title>
<polygon fill="lightgrey" stroke="black" points="265,-306 211,-306 211,-270 265,-270 265,-306"/>
<text text-anchor="middle" x="238" y="-284.3" font-family="Times New Roman,serif" font-size="14.00">1</text>
</g>
<!-- 2 -->
<g id="node7" class="node">
<title>2</title>
<polygon fill="lightgrey" stroke="black" points="566,-306 512,-306 512,-270 566,-270 566,-306"/>
<text text-anchor="middle" x="539" y="-284.3" font-family="Times New Roman,serif" font-size="14.00">2</text>
</g>
<!-- 1&#45;&gt;2 -->
<g id="edge1" class="edge">
<title>1&#45;&gt;2</title>
<path fill="none" stroke="black" d="M265.01,-288C318.36,-288 440.26,-288 501.49,-288"/>
<polygon fill="black" stroke="black" points="501.84,-291.5 511.84,-288 501.84,-284.5 501.84,-291.5"/>
</g>
<!-- 3 -->
<g id="node8" class="node">
<title>3</title>
<polygon fill="lightgrey" stroke="black" points="656,-306 602,-306 602,-270 656,-270 656,-306"/>
<text text-anchor="middle" x="629" y="-284.3" font-family="Times New Roman,serif" font-size="14.00">3</text>
</g>
<!-- 2&#45;&gt;3 -->
<g id="edge2" class="edge">
<title>2&#45;&gt;3</title>
<path fill="none" stroke="black" d="M566.4,-288C574.39,-288 583.31,-288 591.82,-288"/>
<polygon fill="black" stroke="black" points="591.92,-291.5 601.92,-288 591.92,-284.5 591.92,-291.5"/>
</g>
<!-- 4 -->
<g id="node9" class="node">
<title>4</title>
<polygon fill="lightgrey" stroke="black" points="746,-306 692,-306 692,-270 746,-270 746,-306"/>
<text text-anchor="middle" x="719" y="-284.3" font-family="Times New Roman,serif" font-size="14.00">4</text>
</g>
<!-- 3&#45;&gt;4 -->
<g id="edge3" class="edge">
<title>3&#45;&gt;4</title>
<path fill="none" stroke="black" d="M656.4,-288C664.39,-288 673.31,-288 681.82,-288"/>
<polygon fill="black" stroke="black" points="681.92,-291.5 691.92,-288 681.92,-284.5 681.92,-291.5"/>
</g>
<!-- 5 -->
<g id="node10" class="node">
<title>5</title>
<polygon fill="lightgrey" stroke="black" points="836,-306 782,-306 782,-270 836,-270 836,-306"/>
<text text-anchor="middle" x="809" y="-284.3" font-family="Times New Roman,serif" font-size="14.00">5</text>
</g>
<!-- 4&#45;&gt;5 -->
<g id="edge4" class="edge">
<title>4&#45;&gt;5</title>
<path fill="none" stroke="black" d="M746.4,-288C754.39,-288 763.31,-288 771.82,-288"/>
<polygon fill="black" stroke="black" points="771.92,-291.5 781.92,-288 771.92,-284.5 771.92,-291.5"/>
</g>
</g>
</svg>
